<svg height="873" width="1000" xmlns="http://www.w3.org/2000/svg" xmlns:svg="http://www.w3.org/2000/svg" xmlns:xlink="http://www.w3.org/1999/xlink">
 <polyline points="400,873 350,673 650,673 600,873 " style="fill: rgb(191,0,0); stroke: rgb(191,0,0)" />
 <polyline points="450,673 450,573 550,573 550,673 " style="fill: rgb(139,69,19); stroke: rgb(139,69,19)" />
 <circle cx="200" cy="593" r="20" style="fill: rgb(212,175,55); stroke: rgb(212,175,55)" />
 <circle cx="800" cy="593" r="20" style="fill: rgb(212,175,55); stroke: rgb(212,175,55)" />
 <polyline points="200,573 500,273 800,573 " style="fill: rgb(0,127,0); stroke: rgb(0,127,0)" />
 <circle cx="250" cy="443" r="20" style="fill: rgb(212,175,55); stroke: rgb(212,175,55)" />
 <circle cx="750" cy="443" r="20" style="fill: rgb(212,175,55); stroke: rgb(212,175,55)" />
 <polyline points="250,423 500,173 750,423 " style="fill: rgb(0,127,0); stroke: rgb(0,127,0)" />
 <circle cx="291.666666666667" cy="318" r="20" style="fill: rgb(212,175,55); stroke: rgb(212,175,55)" />
 <circle cx="708.333333333333" cy="318" r="20" style="fill: rgb(212,175,55); stroke: rgb(212,175,55)" />
 <polyline points="291.666666666667,298 500,89.6666666666666 708.333333333333,298 " style="fill: rgb(0,127,0); stroke: rgb(0,127,0)" />
 <circle cx="326.388888888889" cy="213.833333333333" r="20" style="fill: rgb(212,175,55); stroke: rgb(212,175,55)" />
 <circle cx="673.611111111111" cy="213.833333333333" r="20" style="fill: rgb(212,175,55); stroke: rgb(212,175,55)" />
 <polyline points="326.388888888889,193.833333333333 500,20.2222222222222 673.611111111111,193.833333333333 " style="fill: rgb(0,127,0); stroke: rgb(0,127,0)" />
</svg>
