<?xml version="1.0" encoding="UTF-8" standalone="no"?>
<!DOCTYPE svg PUBLIC "-//W3C//DTD SVG 1.1//EN"
 "http://www.w3.org/Graphics/SVG/1.1/DTD/svg11.dtd">
<!-- Generated by graphviz version 2.43.0 (0)
 -->
<!-- Title: Birmingham Pages: 1 -->
<svg width="692pt" height="152pt"
 viewBox="0.00 0.00 692.00 152.00" xmlns="http://www.w3.org/2000/svg" xmlns:xlink="http://www.w3.org/1999/xlink">
<g id="graph0" class="graph" transform="scale(1 1) rotate(0) translate(4 148)">
<title>Birmingham</title>
<polygon fill="white" stroke="transparent" points="-4,4 -4,-148 688,-148 688,4 -4,4"/>
<!-- Anderson -->
<g id="node1" class="node">
<title>Anderson</title>
<polygon fill="none" stroke="black" points="144,-94.25 72,-144 0,-94.25 0.07,-13.75 143.93,-13.75 144,-94.25"/>
<text text-anchor="middle" x="72" y="-68.3" font-family="Times,serif" font-size="14.00">Anderson</text>
</g>
<!-- Johnson -->
<g id="node2" class="node">
<title>Johnson</title>
<polygon fill="none" stroke="black" points="324,-94.25 252,-144 180,-94.25 180.07,-13.75 323.93,-13.75 324,-94.25"/>
<text text-anchor="middle" x="252" y="-68.3" font-family="Times,serif" font-size="14.00">Johnson</text>
</g>
<!-- Anderson&#45;&gt;Johnson -->
<g id="edge1" class="edge">
<title>Anderson&#45;&gt;Johnson</title>
<path fill="none" stroke="black" d="M144.12,-72C152.61,-72 161.33,-72 169.94,-72"/>
<polygon fill="black" stroke="black" points="170,-75.5 180,-72 170,-68.5 170,-75.5"/>
</g>
<!-- Taylor -->
<g id="node3" class="node">
<title>Taylor</title>
<polygon fill="none" stroke="black" points="504,-94.25 432,-144 360,-94.25 360.07,-13.75 503.93,-13.75 504,-94.25"/>
<text text-anchor="middle" x="432" y="-68.3" font-family="Times,serif" font-size="14.00">Taylor</text>
</g>
<!-- Johnson&#45;&gt;Taylor -->
<g id="edge2" class="edge">
<title>Johnson&#45;&gt;Taylor</title>
<path fill="none" stroke="black" d="M324.12,-72C332.61,-72 341.33,-72 349.94,-72"/>
<polygon fill="black" stroke="black" points="350,-75.5 360,-72 350,-68.5 350,-75.5"/>
</g>
<!-- Williams -->
<g id="node4" class="node">
<title>Williams</title>
<polygon fill="none" stroke="black" points="684,-94.25 612,-144 540,-94.25 540.07,-13.75 683.93,-13.75 684,-94.25"/>
<text text-anchor="middle" x="612" y="-68.3" font-family="Times,serif" font-size="14.00">Williams</text>
</g>
<!-- Taylor&#45;&gt;Williams -->
<g id="edge3" class="edge">
<title>Taylor&#45;&gt;Williams</title>
<path fill="none" stroke="black" d="M504.12,-72C512.61,-72 521.33,-72 529.94,-72"/>
<polygon fill="black" stroke="black" points="530,-75.5 540,-72 530,-68.5 530,-75.5"/>
</g>
</g>
</svg>
