<?xml version="1.0" encoding="UTF-8" standalone="no"?>
<!DOCTYPE svg PUBLIC "-//W3C//DTD SVG 1.1//EN"
 "http://www.w3.org/Graphics/SVG/1.1/DTD/svg11.dtd">
<!-- Generated by graphviz version 2.43.0 (0)
 -->
<!-- Title: Birmingham Pages: 1 -->
<svg width="1265pt" height="207pt"
 viewBox="0.00 0.00 1265.25 207.00" xmlns="http://www.w3.org/2000/svg" xmlns:xlink="http://www.w3.org/1999/xlink">
<g id="graph0" class="graph" transform="scale(1 1) rotate(0) translate(4 203)">
<title>Birmingham</title>
<polygon fill="white" stroke="transparent" points="-4,4 -4,-203 1261.25,-203 1261.25,4 -4,4"/>
<g id="clust1" class="cluster">
<title>cluster_NorthPole</title>
<polygon fill="none" stroke="black" points="8,-8 8,-191 529.25,-191 529.25,-8 8,-8"/>
<text text-anchor="middle" x="268.62" y="-175.8" font-family="Times,serif" font-size="14.00">North Pole</text>
</g>
<g id="clust2" class="cluster">
<title>cluster_Birmingham</title>
<polygon fill="none" stroke="black" points="549.25,-8 549.25,-191 1249.25,-191 1249.25,-8 549.25,-8"/>
<text text-anchor="middle" x="899.25" y="-175.8" font-family="Times,serif" font-size="14.00">Birmingham</text>
</g>
<!-- Santa&#39;s house -->
<g id="node1" class="node">
<title>Santa&#39;s house</title>
<polygon fill="none" stroke="black" points="161.37,-110.25 88.62,-160 15.88,-110.25 15.94,-29.75 161.31,-29.75 161.37,-110.25"/>
<text text-anchor="middle" x="88.62" y="-84.3" font-family="Times,serif" font-size="14.00">Santa&#39;s house</text>
</g>
<!-- Supermarket -->
<g id="node2" class="node">
<title>Supermarket</title>
<polygon fill="none" stroke="black" points="341.25,-110.25 269.25,-160 197.25,-110.25 197.32,-29.75 341.18,-29.75 341.25,-110.25"/>
<text text-anchor="middle" x="269.25" y="-84.3" font-family="Times,serif" font-size="14.00">Supermarket</text>
</g>
<!-- Santa&#39;s house&#45;&gt;Supermarket -->
<g id="edge1" class="edge">
<title>Santa&#39;s house&#45;&gt;Supermarket</title>
<path fill="none" stroke="black" d="M161.51,-88C169.84,-88 178.4,-88 186.85,-88"/>
<polygon fill="black" stroke="black" points="187.1,-91.5 197.1,-88 187.1,-84.5 187.1,-91.5"/>
</g>
<!-- Sleds&#39; garage -->
<g id="node3" class="node">
<title>Sleds&#39; garage</title>
<polygon fill="none" stroke="black" points="521.25,-110.25 449.25,-160 377.25,-110.25 377.32,-29.75 521.18,-29.75 521.25,-110.25"/>
<text text-anchor="middle" x="449.25" y="-84.3" font-family="Times,serif" font-size="14.00">Sleds&#39; garage</text>
</g>
<!-- Supermarket&#45;&gt;Sleds&#39; garage -->
<g id="edge2" class="edge">
<title>Supermarket&#45;&gt;Sleds&#39; garage</title>
<path fill="none" stroke="black" d="M341.37,-88C349.86,-88 358.58,-88 367.19,-88"/>
<polygon fill="black" stroke="black" points="367.24,-91.5 377.24,-88 367.24,-84.5 367.24,-91.5"/>
</g>
<!-- Anderson -->
<g id="node4" class="node">
<title>Anderson</title>
<polygon fill="none" stroke="black" points="701.25,-110.25 629.25,-160 557.25,-110.25 557.32,-29.75 701.18,-29.75 701.25,-110.25"/>
<text text-anchor="middle" x="629.25" y="-84.3" font-family="Times,serif" font-size="14.00">Anderson</text>
</g>
<!-- Sleds&#39; garage&#45;&gt;Anderson -->
<g id="edge3" class="edge">
<title>Sleds&#39; garage&#45;&gt;Anderson</title>
<path fill="none" stroke="black" d="M521.37,-88C529.86,-88 538.58,-88 547.19,-88"/>
<polygon fill="black" stroke="black" points="547.24,-91.5 557.24,-88 547.24,-84.5 547.24,-91.5"/>
</g>
<!-- Johnson -->
<g id="node5" class="node">
<title>Johnson</title>
<polygon fill="none" stroke="black" points="881.25,-110.25 809.25,-160 737.25,-110.25 737.32,-29.75 881.18,-29.75 881.25,-110.25"/>
<text text-anchor="middle" x="809.25" y="-84.3" font-family="Times,serif" font-size="14.00">Johnson</text>
</g>
<!-- Anderson&#45;&gt;Johnson -->
<g id="edge4" class="edge">
<title>Anderson&#45;&gt;Johnson</title>
<path fill="none" stroke="black" d="M701.37,-88C709.86,-88 718.58,-88 727.19,-88"/>
<polygon fill="black" stroke="black" points="727.24,-91.5 737.24,-88 727.24,-84.5 727.24,-91.5"/>
</g>
<!-- Taylor -->
<g id="node6" class="node">
<title>Taylor</title>
<polygon fill="none" stroke="black" points="1061.25,-110.25 989.25,-160 917.25,-110.25 917.32,-29.75 1061.18,-29.75 1061.25,-110.25"/>
<text text-anchor="middle" x="989.25" y="-84.3" font-family="Times,serif" font-size="14.00">Taylor</text>
</g>
<!-- Johnson&#45;&gt;Taylor -->
<g id="edge5" class="edge">
<title>Johnson&#45;&gt;Taylor</title>
<path fill="none" stroke="black" d="M881.37,-88C889.86,-88 898.58,-88 907.19,-88"/>
<polygon fill="black" stroke="black" points="907.24,-91.5 917.24,-88 907.24,-84.5 907.24,-91.5"/>
</g>
<!-- Williams -->
<g id="node7" class="node">
<title>Williams</title>
<polygon fill="none" stroke="black" points="1241.25,-110.25 1169.25,-160 1097.25,-110.25 1097.32,-29.75 1241.18,-29.75 1241.25,-110.25"/>
<text text-anchor="middle" x="1169.25" y="-84.3" font-family="Times,serif" font-size="14.00">Williams</text>
</g>
<!-- Taylor&#45;&gt;Williams -->
<g id="edge6" class="edge">
<title>Taylor&#45;&gt;Williams</title>
<path fill="none" stroke="black" d="M1061.37,-88C1069.86,-88 1078.58,-88 1087.19,-88"/>
<polygon fill="black" stroke="black" points="1087.24,-91.5 1097.24,-88 1087.24,-84.5 1087.24,-91.5"/>
</g>
</g>
</svg>
