<?xml version="1.0" encoding="UTF-8" standalone="no"?>
<!DOCTYPE svg PUBLIC "-//W3C//DTD SVG 1.1//EN"
 "http://www.w3.org/Graphics/SVG/1.1/DTD/svg11.dtd">
<!-- Generated by graphviz version 2.43.0 (0)
 -->
<!-- Title: Perl Pages: 1 -->
<svg width="501pt" height="44pt"
 viewBox="0.00 0.00 500.77 44.00" xmlns="http://www.w3.org/2000/svg" xmlns:xlink="http://www.w3.org/1999/xlink">
<g id="graph0" class="graph" transform="scale(1 1) rotate(0) translate(4 40)">
<title>Perl</title>
<polygon fill="white" stroke="transparent" points="-4,4 -4,-40 496.77,-40 496.77,4 -4,4"/>
<!-- Anderson -->
<g id="node1" class="node">
<title>Anderson</title>
<ellipse fill="none" stroke="black" cx="54.6" cy="-18" rx="54.69" ry="18"/>
<text text-anchor="middle" x="54.6" y="-14.3" font-family="Times,serif" font-size="14.00">Anderson</text>
</g>
<!-- Johnson -->
<g id="node2" class="node">
<title>Johnson</title>
<ellipse fill="none" stroke="black" cx="192.64" cy="-18" rx="47.39" ry="18"/>
<text text-anchor="middle" x="192.64" y="-14.3" font-family="Times,serif" font-size="14.00">Johnson</text>
</g>
<!-- Anderson&#45;&#45;Johnson -->
<g id="edge1" class="edge">
<title>Anderson&#45;&#45;Johnson</title>
<path fill="none" stroke="black" d="M109.36,-18C121.1,-18 133.42,-18 144.86,-18"/>
</g>
<!-- Taylor -->
<g id="node3" class="node">
<title>Taylor</title>
<ellipse fill="none" stroke="black" cx="315.73" cy="-18" rx="39.79" ry="18"/>
<text text-anchor="middle" x="315.73" y="-14.3" font-family="Times,serif" font-size="14.00">Taylor</text>
</g>
<!-- Johnson&#45;&#45;Taylor -->
<g id="edge2" class="edge">
<title>Johnson&#45;&#45;Taylor</title>
<path fill="none" stroke="black" d="M240.11,-18C251.98,-18 264.62,-18 276.05,-18"/>
</g>
<!-- Williams -->
<g id="node4" class="node">
<title>Williams</title>
<ellipse fill="none" stroke="black" cx="442.07" cy="-18" rx="50.89" ry="18"/>
<text text-anchor="middle" x="442.07" y="-14.3" font-family="Times,serif" font-size="14.00">Williams</text>
</g>
<!-- Taylor&#45;&#45;Williams -->
<g id="edge3" class="edge">
<title>Taylor&#45;&#45;Williams</title>
<path fill="none" stroke="black" d="M355.39,-18C366.65,-18 379.12,-18 390.99,-18"/>
</g>
</g>
</svg>
