<?xml version="1.0" encoding="UTF-8" standalone="no"?>
<!DOCTYPE svg PUBLIC "-//W3C//DTD SVG 1.1//EN"
 "http://www.w3.org/Graphics/SVG/1.1/DTD/svg11.dtd">
<!-- Generated by graphviz version 2.36.0 (20140111.2315)
 -->
<!-- Title: Perl Pages: 1 -->
<svg width="720pt" height="720pt"
 viewBox="0.00 0.00 720.00 720.00" xmlns="http://www.w3.org/2000/svg" xmlns:xlink="http://www.w3.org/1999/xlink">
<g id="graph0" class="graph" transform="scale(0.989011 0.989011) rotate(0) translate(4 724)">
<title>Perl</title>
<polygon fill="white" stroke="none" points="-4,4 -4,-724 724,-724 724,4 -4,4"/>
<!-- Get list of children -->
<g id="node1" class="node"><title>Get list of children</title>
<ellipse fill="none" stroke="black" cx="447.6" cy="-669" rx="77.0154" ry="18"/>
<text text-anchor="middle" x="447.6" y="-665.3" font-family="Times,serif" font-size="14.00">Get list of children</text>
</g>
<!-- Assign UUIDs -->
<g id="node2" class="node"><title>Assign UUIDs</title>
<ellipse fill="none" stroke="black" cx="120.6" cy="-463" rx="63.0666" ry="18"/>
<text text-anchor="middle" x="120.6" y="-459.3" font-family="Times,serif" font-size="14.00">Assign UUIDs</text>
</g>
<!-- Get list of children&#45;&gt;Assign UUIDs -->
<g id="edge1" class="edge"><title>Get list of children&#45;&gt;Assign UUIDs</title>
<path fill="none" stroke="black" d="M421.941,-651.992C363.415,-615.481 220.062,-526.05 154.421,-485.099"/>
<polygon fill="black" stroke="black" points="156.028,-481.977 145.691,-479.653 152.323,-487.916 156.028,-481.977"/>
</g>
<!-- Combine scores -->
<g id="node6" class="node"><title>Combine scores</title>
<ellipse fill="none" stroke="black" cx="456.6" cy="-51" rx="67.3907" ry="18"/>
<text text-anchor="middle" x="456.6" y="-47.3" font-family="Times,serif" font-size="14.00">Combine scores</text>
</g>
<!-- Get list of children&#45;&gt;Combine scores -->
<g id="edge5" class="edge"><title>Get list of children&#45;&gt;Combine scores</title>
<path fill="none" stroke="black" d="M472.041,-651.689C512.695,-622.899 592.784,-558.705 623.6,-481 684.489,-327.462 538.239,-142.245 479.604,-76.5537"/>
<polygon fill="black" stroke="black" points="481.888,-73.8613 472.584,-68.7927 476.696,-78.5569 481.888,-73.8613"/>
</g>
<!-- Name score -->
<g id="node3" class="node"><title>Name score</title>
<ellipse fill="none" stroke="black" cx="161.6" cy="-257" rx="52.9443" ry="18"/>
<text text-anchor="middle" x="161.6" y="-253.3" font-family="Times,serif" font-size="14.00">Name score</text>
</g>
<!-- Assign UUIDs&#45;&gt;Name score -->
<g id="edge2" class="edge"><title>Assign UUIDs&#45;&gt;Name score</title>
<path fill="none" stroke="black" d="M124.025,-444.958C131.14,-409.558 147.569,-327.814 156.153,-285.103"/>
<polygon fill="black" stroke="black" points="159.617,-285.631 158.156,-275.137 152.754,-284.251 159.617,-285.631"/>
</g>
<!-- IP score -->
<g id="node4" class="node"><title>IP score</title>
<ellipse fill="none" stroke="black" cx="456.6" cy="-257" rx="39.4691" ry="18"/>
<text text-anchor="middle" x="456.6" y="-253.3" font-family="Times,serif" font-size="14.00">IP score</text>
</g>
<!-- Assign UUIDs&#45;&gt;IP score -->
<g id="edge3" class="edge"><title>Assign UUIDs&#45;&gt;IP score</title>
<path fill="none" stroke="black" d="M146.13,-446.499C206.685,-409.734 358.875,-317.333 425.051,-277.155"/>
<polygon fill="black" stroke="black" points="427.068,-280.025 433.799,-271.843 423.435,-274.041 427.068,-280.025"/>
</g>
<!-- Name score&#45;&gt;Combine scores -->
<g id="edge7" class="edge"><title>Name score&#45;&gt;Combine scores</title>
<path fill="none" stroke="black" d="M184.258,-240.331C236.467,-204.227 365.327,-115.117 425.15,-73.7487"/>
<polygon fill="black" stroke="black" points="427.223,-76.5701 433.458,-68.0036 423.242,-70.8126 427.223,-76.5701"/>
</g>
<!-- IP score&#45;&gt;Combine scores -->
<g id="edge6" class="edge"><title>IP score&#45;&gt;Combine scores</title>
<path fill="none" stroke="black" d="M456.6,-238.958C456.6,-203.633 456.6,-122.161 456.6,-79.3749"/>
<polygon fill="black" stroke="black" points="460.1,-79.137 456.6,-69.137 453.1,-79.137 460.1,-79.137"/>
</g>
<!-- Download GeoLite2 database -->
<g id="node5" class="node"><title>Download GeoLite2 database</title>
<ellipse fill="none" stroke="black" cx="499.6" cy="-463" rx="115.534" ry="18"/>
<text text-anchor="middle" x="499.6" y="-459.3" font-family="Times,serif" font-size="14.00">Download GeoLite2 database</text>
</g>
<!-- Download GeoLite2 database&#45;&gt;IP score -->
<g id="edge4" class="edge"><title>Download GeoLite2 database&#45;&gt;IP score</title>
<path fill="none" stroke="black" d="M496.008,-444.958C488.546,-409.558 471.316,-327.814 462.313,-285.103"/>
<polygon fill="black" stroke="black" points="465.7,-284.2 460.212,-275.137 458.85,-285.644 465.7,-284.2"/>
</g>
</g>
</svg>
